<?xml version="1.0" standalone="no"?><!DOCTYPE svg PUBLIC "-//W3C//DTD SVG 1.1//EN" "http://www.w3.org/Graphics/SVG/1.1/DTD/svg11.dtd"><svg t="1611576097583" class="icon" viewBox="0 0 1024 1024" version="1.1" xmlns="http://www.w3.org/2000/svg" p-id="20648" xmlns:xlink="http://www.w3.org/1999/xlink" width="40" height="40"><defs><style type="text/css"></style></defs><path d="M389.596 79.213A98.61 98.61 0 0 0 272.124 6.355l-131.048 29.49a25.421 25.421 0 1 0 11.16 49.596l131.048-29.488A47.767 47.767 0 0 1 340.38 92.05l0.89 3.05 303.379 840.636a25.421 25.421 0 1 0 47.792-17.261L389.621 79.213z" p-id="20649" fill="#007751"></path><path d="M299.731 164.502L322.56 943.49c0.254 9.66 8.262 17.389 18.049 17.389h351.45c9.814 0 17.796-7.728 18.05-17.389l22.88-778.988H299.68z m40.878 859.218c-44.233 0-80.459-34.878-81.603-78.628l-22.955-785.446c-0.814-31.217 24.124-57.172 55.698-57.96h447.747c31.574 0 57.198 25.32 57.198 56.537l-0.025 1.449-23.006 785.42c-1.144 43.725-37.344 78.628-81.603 78.628H340.609z" p-id="20650" fill="#007751"></path><path d="M318.01 290.872a25.421 25.421 0 1 0 50.842 0 25.421 25.421 0 1 0-50.843 0zM375.945 328.19a25.421 25.421 0 1 0 50.842 0 25.421 25.421 0 1 0-50.842 0z" p-id="20651" fill="#007751"></path><path d="M421.856 305.057a25.421 25.421 0 1 0 50.842 0 25.421 25.421 0 1 0-50.842 0zM483.935 334.266a25.421 25.421 0 1 0 50.843 0 25.421 25.421 0 1 0-50.843 0zM542.506 296.948a25.421 25.421 0 1 0 50.843 0 25.421 25.421 0 1 0-50.843 0zM600.467 323.716a25.421 25.421 0 1 0 50.842 0 25.421 25.421 0 1 0-50.842 0zM664.249 297.075a25.421 25.421 0 1 0 50.843 0 25.421 25.421 0 1 0-50.843 0zM580.638 706.36a18.1 18.1 0 0 0-1.805-13.83 18.1 18.1 0 0 0-11.084-8.49 18.1 18.1 0 0 0-13.83 1.804l-17.667 10.22 2.364-8.872a18.253 18.253 0 0 0-35.208-9.406l-11.821 44.055-45.606 26.337V695.53l32.285-32.285a18.253 18.253 0 0 0-25.803-25.778l-6.482 6.483v-19.346a18.253 18.253 0 0 0-36.455 0v19.371l-6.508-6.508a18.125 18.125 0 0 0-12.888-5.338 18.253 18.253 0 0 0-12.889 31.116l32.285 32.285v52.8l-44.818-25.879-11.795-44.08a18.1 18.1 0 0 0-8.516-11.059 18.253 18.253 0 0 0-26.718 20.515l2.39 8.847-16.779-9.66a18.253 18.253 0 0 0-18.227 31.548l16.778 9.685-8.872 2.364a18.125 18.125 0 0 0-11.058 8.491 18.125 18.125 0 0 0-1.83 13.855 18.13 18.13 0 0 0 8.49 11.058c4.17 2.44 9.152 3.076 13.83 1.83l44.08-11.82 44.666 25.802-42.48 24.532-41.69-11.185a18.125 18.125 0 0 0-22.346 12.888 18.1 18.1 0 0 0 1.83 13.83c2.415 4.22 6.356 7.245 11.059 8.516l6.482 1.728-17.871 10.321a18.1 18.1 0 0 0-8.491 11.084 18.1 18.1 0 0 0 1.83 13.83 18.15 18.15 0 0 0 24.913 6.685l20.846-12.075-3 11.236a18.1 18.1 0 0 0 1.83 13.83 18.253 18.253 0 0 0 33.404-4.398l12.457-46.445 39.606-22.88v50.513l-32.285 32.285a18.253 18.253 0 0 0 12.889 31.116c4.83 0 9.482-1.907 12.888-5.339l6.508-6.508v20.414a18.253 18.253 0 0 0 36.455 0V913.39l6.482 6.508c3.407 3.407 8.059 5.339 12.889 5.339s9.482-1.932 12.888-5.339a18.253 18.253 0 0 0 0-25.802l-32.26-32.26v-50.335l44.539 25.676 11.82 44.106a18.253 18.253 0 0 0 35.21-9.457l-2.365-8.846 17.668 10.194a18.125 18.125 0 0 0 24.913-6.66 18.1 18.1 0 0 0 1.805-13.83 18.1 18.1 0 0 0-8.49-11.084l-17.669-10.194 8.847-2.39a18.1 18.1 0 0 0 11.084-8.49 18.253 18.253 0 0 0-20.515-26.718l-44.08 11.796-44.666-25.778 45.758-26.438 44.055 11.846a18.253 18.253 0 0 0 9.457-35.234l-8.872-2.364 17.668-10.194a18.075 18.075 0 0 0 8.49-11.084z" p-id="20652" fill="#007751"></path></svg>