<?xml version="1.0" standalone="no"?><!DOCTYPE svg PUBLIC "-//W3C//DTD SVG 1.1//EN" "http://www.w3.org/Graphics/SVG/1.1/DTD/svg11.dtd"><svg t="1611576050435" class="icon" viewBox="0 0 1024 1024" version="1.1" xmlns="http://www.w3.org/2000/svg" p-id="19694" xmlns:xlink="http://www.w3.org/1999/xlink" width="40" height="40"><defs><style type="text/css"></style></defs><path d="M831.151158 271.804632h15.548631c26.071579 0 47.225263-20.884211 47.252211-46.645895v-40.016842c-0.026947-25.761684-21.153684-46.618947-47.198316-46.659369h-58.570105l-22.231579-111.494737a16.262737 16.262737 0 0 0-15.993263-13.002105H287.730526c-7.787789 0-14.484211 5.456842-15.979789 13.002105l-22.460632 111.494737H190.773895c-26.071579 0-47.225263 20.884211-47.252211 46.645895v40.030316c0.026947 25.748211 21.153684 46.618947 47.198316 46.645895H206.282105l42.536421 722.997894c0.485053 8.555789 7.653053 15.225263 16.303158 15.21179h507.149474a16.235789 16.235789 0 0 0 16.357053-15.21179l42.536421-722.997894zM301.231158 46.228211h435.563789l18.378106 92.254315H282.570105l18.647579-92.254315zM191.029895 239.669895a14.672842 14.672842 0 0 1-10.549895-4.136421 14.309053 14.309053 0 0 1-4.352-10.374737v-40.016842c0-7.962947 6.534737-14.416842 14.578526-14.416842h655.97979a14.551579 14.551579 0 0 1 14.632421 14.416842v40.016842a14.551579 14.551579 0 0 1-14.578526 14.416842H190.773895l0.269473 0.094316zM756.911158 977.785263H280.562526l-4.634947-78.133895h485.618526l-4.634947 78.147369z m-482.883369-110.362947L249.290105 446.652632h108.436211c9.000421 0 16.303158-7.208421 16.303158-16.114527 0-8.892632-7.302737-16.114526-16.303158-16.114526H247.376842L239.023158 271.804632h559.454316l-8.380632 142.618947h-114.189474c-9.013895 0-16.303158 7.208421-16.303157 16.114526 0 8.892632 7.289263 16.114526 16.303157 16.114527h112.505264l-24.953264 420.75621H274.027789z" p-id="19695" fill="#592e14"></path><path d="M415.501474 541.722947a15.979789 15.979789 0 0 0 20.37221 9.889685c4.001684-1.401263 7.275789-4.378947 9.135158-8.245895 1.845895-3.880421 2.101895-8.340211 0.700632-12.39579l-11.641263-33.549473a41.566316 41.566316 0 0 1 4.581052-36.378948 74.536421 74.536421 0 0 0 4.244211-73.87621l-11.223579-22.501053a15.818105 15.818105 0 0 0-20.924632-6.386526c-7.545263 3.813053-10.859789 12.934737-7.585684 20.830316l11.277474 22.501052c6.602105 13.231158 5.632 29.049263-2.506106 41.364211a74.859789 74.859789 0 0 0-8.08421 65.212631l11.654737 33.536z m92.928 0a15.979789 15.979789 0 0 0 20.37221 9.889685 16.303158 16.303158 0 0 0 9.741474-20.655158l-11.654737-33.522527a41.566316 41.566316 0 0 1 4.581053-36.392421 74.536421 74.536421 0 0 0 4.675368-73.87621l-11.277474-22.501053a15.952842 15.952842 0 0 0-13.379368-8.85221 15.885474 15.885474 0 0 0-14.228211 7.356631c-3.112421 4.850526-3.435789 11.048421-0.848842 16.208842l11.277474 22.501053c6.575158 13.217684 5.658947 29.035789-2.45221 41.36421a74.482526 74.482526 0 0 0-8.407579 64.943158l11.600842 33.536z m89.465263 0a15.979789 15.979789 0 0 0 20.385684 9.889685 16.303158 16.303158 0 0 0 9.728-20.655158l-11.641263-33.522527a41.566316 41.566316 0 0 1 4.581053-36.392421 74.536421 74.536421 0 0 0 4.352-73.87621l-11.277474-22.501053a15.966316 15.966316 0 0 0-13.460211-9.539368 15.885474 15.885474 0 0 0-14.618947 7.57221 16.451368 16.451368 0 0 0-0.323368 16.680421l11.277473 22.501053c6.588632 13.231158 5.632 29.049263-2.506105 41.36421a74.859789 74.859789 0 0 0-8.138105 64.943158l11.654737 33.536z" p-id="19696" fill="#592e14"></path></svg>