<?xml version="1.0" standalone="no"?><!DOCTYPE svg PUBLIC "-//W3C//DTD SVG 1.1//EN" "http://www.w3.org/Graphics/SVG/1.1/DTD/svg11.dtd"><svg t="1611030391699" class="icon" viewBox="0 0 1243 1024" version="1.1" xmlns="http://www.w3.org/2000/svg" p-id="12367" xmlns:xlink="http://www.w3.org/1999/xlink" width="48.5546875" height="40"><defs><style type="text/css"></style></defs><path d="M110.811429 1002.971429h995.364571a110.774857 110.774857 0 0 0 110.811429-110.774858V110.445714a110.774857 110.774857 0 0 0-110.811429-109.165714H110.848A110.774857 110.774857 0 0 0 0.073143 107.776v787.090286a110.774857 110.774857 0 0 0 110.774857 108.105143zM608.292571 94.427429h520.301715v815.908571h-521.874286l1.572571-815.908571z" fill="#646566" p-id="12368"></path><path d="M1070.518857 247.296V346.331429H679.606857V247.296zM1071.030857 451.803429v99.035428H680.155429v-99.035428h390.875428zM1070.518857 656.274286v99.072H679.606857v-99.072h390.912z" fill="#646566" p-id="12369"></path></svg>