<?xml version="1.0" standalone="no"?><!DOCTYPE svg PUBLIC "-//W3C//DTD SVG 1.1//EN" "http://www.w3.org/Graphics/SVG/1.1/DTD/svg11.dtd"><svg t="1611030595173" class="icon" viewBox="0 0 1024 1024" version="1.1" xmlns="http://www.w3.org/2000/svg" p-id="17432" xmlns:xlink="http://www.w3.org/1999/xlink" width="40" height="40"><defs><style type="text/css"></style></defs><path d="M295.822222 298.666667c0 116.622222 96.711111 213.333333 213.333334 213.333333s213.333333-96.711111 213.333333-213.333333S625.777778 85.333333 509.155556 85.333333s-213.333333 96.711111-213.333334 213.333334zM324.266667 554.666667h364.088889c102.4 0 182.044444 79.644444 182.044444 182.044444v139.377778c0 36.977778-25.6 59.733333-59.733333 59.733333H204.8C167.822222 938.666667 142.222222 913.066667 142.222222 876.088889v-139.377778c0-96.711111 79.644444-182.044444 182.044445-182.044444z m196.266666 324.266666l110.933334-110.933333c31.288889-31.288889 31.288889-79.644444 0-102.4-31.288889-31.288889-79.644444-31.288889-102.4-5.688889l-17.066667 17.066667-17.066667-17.066667c-31.288889-25.6-79.644444-25.6-110.933333 0-31.288889 31.288889-31.288889 79.644444 0 102.4l110.933333 116.622222c5.688889 5.688889 19.911111 5.688889 25.6 0z" p-id="17433" fill="#007751"></path></svg>