<?xml version="1.0" standalone="no"?><!DOCTYPE svg PUBLIC "-//W3C//DTD SVG 1.1//EN" "http://www.w3.org/Graphics/SVG/1.1/DTD/svg11.dtd"><svg t="1611554450721" class="icon" viewBox="0 0 1170 1024" version="1.1" xmlns="http://www.w3.org/2000/svg" p-id="10048" xmlns:xlink="http://www.w3.org/1999/xlink" width="45.703125" height="40"><defs><style type="text/css"></style></defs><path d="M635.465143 346.404571C635.465143 192.512 520.777143 67.876571 379.757714 67.876571S124.635429 192.512 124.635429 346.404571c0 111.762286 60.854857 207.725714 148.041142 252.196572v60.854857h215.332572v-60.854857c87.186286-44.470857 147.456-140.434286 147.456-252.196572z m108.251428 651.849143c1.755429-14.043429 2.925714-28.672 2.925715-43.300571 0-192.512-163.84-348.16-366.299429-348.16S13.458286 762.441143 13.458286 954.953143c0 14.628571 1.170286 28.672 2.925714 43.300571h727.332571zM1043.894857 25.746286H595.090286v49.737143h448.804571c36.864 0 62.610286 19.894857 62.610286 38.034285v795.794286c0 18.139429-25.746286 38.034286-62.610286 38.034286h-253.366857v49.737143h253.366857c63.195429 0 112.347429-38.619429 112.347429-88.356572V114.102857c0.585143-49.152-49.152-88.356571-112.347429-88.356571z m-4.681143 246.930285c0 9.947429-7.606857 18.139429-16.384 18.139429H679.350857c-9.362286 0-16.384-8.192-16.384-18.139429v-52.077714c0-9.947429 7.606857-18.139429 16.384-18.139428h343.478857c9.362286 0 16.384 8.192 16.384 18.139428v52.077714z m0 180.809143c0 9.947429-7.606857 18.139429-16.384 18.139429H679.350857c-9.362286 0-16.384-8.192-16.384-18.139429v-52.077714c0-9.947429 7.606857-18.139429 16.384-18.139429h343.478857c9.362286 0 16.384 8.192 16.384 18.139429V453.485714z m0 180.809143c0 9.947429-5.851429 18.139429-12.873143 18.139429H760.685714c-7.021714 0-12.873143-8.192-12.873143-18.139429V582.217143c0-9.947429 5.851429-18.139429 12.873143-18.139429h265.654857c7.021714 0 12.873143 8.192 12.873143 18.139429v52.077714z" p-id="10049" fill="#646566"></path></svg>