<?xml version="1.0" standalone="no"?><!DOCTYPE svg PUBLIC "-//W3C//DTD SVG 1.1//EN" "http://www.w3.org/Graphics/SVG/1.1/DTD/svg11.dtd"><svg t="1611576017917" class="icon" viewBox="0 0 1024 1024" version="1.1" xmlns="http://www.w3.org/2000/svg" p-id="18065" xmlns:xlink="http://www.w3.org/1999/xlink" width="40" height="40"><defs><style type="text/css"></style></defs><path d="M773.3248 768.8448l33.0752-123.008c-34.304-22.4512-73.728-34.3552-118.272-35.7376-66.7904-2.0736-96.3584 26.624-193.1264 26.624s-142.208-28.3904-202.24-26.624a198.1952 198.1952 0 0 0-109.184 35.7376l41.8816 90.24a591.3856 591.3856 0 0 1-39.2704-67.2512c-22.3232-45.824-33.9712-93.3632-34.9696-142.6176 41.4208-52.2752 98.9184-69.6832 172.544-52.2752 110.3872 26.1376 158.6944 78.4128 256.256 52.2752 97.536-26.1376 183.04-37.632 240.4608 0 37.7088 24.704 22.016 105.6-47.1552 242.6368z m-107.5456 87.1168l-5.5296 4.2752-2.816 0.128 8.3456-4.4032z m-356.864-34.3552c-8.832-3.2768-14.208-4.8896-16.1536-4.8896-2.56 0-8.96-5.632-17.5616-15.1296l33.7408 20.0192zM333.3888 135.5776c-17.5104-17.8688-34.176-34.816-34.176-51.712 0-25.728 15.4112-39.1936 22.784-44.288 7.7568-3.0464 13.0304-8.8064 13.0304-15.36 0-9.7792-11.52-17.7152-25.6768-17.7152a35.328 35.328 0 0 0-11.52 1.8944s-1.2544 0.3584-2.6368 1.024c-1.4848 0.7168-2.9952 1.5616-4.2496 2.432-13.5168 8.192-42.4448 30.5664-42.4448 72.0128 0 27.6224 22.784 50.8416 42.9568 71.296 16.768 17.1008 32.5376 33.152 32.5376 48.256 0 27.392-30.5408 51.3024-31.1552 51.712-9.3952 7.0912-8.6528 18.1504 1.6128 24.6272 4.864 3.0208 11.008 4.5568 17.024 4.5568 6.912 0 13.6704-1.8944 18.688-5.6832 1.7408-1.3824 44.288-33.9456 44.288-75.2128 0.256-25.8816-20.7616-47.2064-41.0624-67.84z m189.952 0c-17.5104-17.8688-34.176-34.816-34.176-51.712 0-25.728 15.4112-39.1936 22.784-44.288 7.7824-3.0464 13.0304-8.8064 13.0304-15.36 0-9.7792-11.52-17.7152-25.6768-17.7152a35.328 35.328 0 0 0-11.52 1.8944s-1.2544 0.3584-2.6112 1.024c-1.536 0.7168-3.0208 1.5616-4.2752 2.432-13.5168 8.192-42.4448 30.5664-42.4448 72.0128 0 27.6224 22.784 50.8416 42.9568 71.296 16.768 17.1008 32.5632 33.152 32.5632 48.256 0 27.392-30.5664 51.3024-31.1808 51.712-9.3952 7.0912-8.6528 18.1504 1.6128 24.6272 4.8896 3.0208 11.008 4.5568 17.024 4.5568 6.912 0 13.6704-1.8944 18.688-5.6832 1.7408-1.3824 44.288-33.9456 44.288-75.2128 0.1536-25.8816-20.7616-47.2064-41.0624-67.84z m189.8496 0c-17.536-17.8688-34.2016-34.816-34.2016-51.712 0-25.728 15.4112-39.1936 22.784-44.288 7.7824-3.0464 13.056-8.8064 13.056-15.36 0-9.7792-11.52-17.7152-25.7024-17.7152a35.328 35.328 0 0 0-11.52 1.8944s-1.2288 0.3584-2.6112 1.024c-1.5104 0.7168-3.0208 1.5616-4.2752 2.432-13.5168 8.192-42.4448 30.5664-42.4448 72.0128 0 27.6224 22.784 50.8416 42.9568 71.296 16.768 17.1008 32.5632 33.152 32.5632 48.256 0 27.392-30.5664 51.3024-31.1808 51.712-9.3952 7.0912-8.6528 18.1504 1.6128 24.6272 4.8896 3.0208 11.008 4.5568 17.0496 4.5568 6.8864 0 13.6448-1.8944 18.6368-5.6832 1.7664-1.3824 44.3392-33.9456 44.3392-75.2128 0.256-25.8816-20.6592-47.2064-41.0624-67.84z" fill="#007751" p-id="18066"></path><path d="M217.6 960m32 0l524.8 0q32 0 32 32l0 0q0 32-32 32l-524.8 0q-32 0-32-32l0 0q0-32 32-32Z" fill="#007751" p-id="18067"></path><path d="M798.2848 505.6768h25.1904a25.088 25.088 0 0 1 25.216 25.1904v88.9344c0 74.0608-28.8256 143.6672-81.2032 196.0448a275.7888 275.7888 0 0 1-196.1984 81.3312H441.088c-65.8432 0-129.7152-23.4496-179.712-66.0992a278.1184 278.1184 0 0 1-93.696-164.2752 25.1648 25.1648 0 1 1 49.664-8.4736 226.3808 226.3808 0 0 0 223.744 188.4416h130.2016c125.1072 0 226.9952-101.888 226.9952-226.9696v-114.1248zM158.848 556.032h-25.3184a25.216 25.216 0 0 1-25.1904-25.1904v-152.4224c0-13.952 11.3408-25.1904 25.1904-25.1904h689.9456c111.1296 0 201.4464 90.4192 201.4464 201.4208a202.1632 202.1632 0 0 1-83.072 163.0208 25.0368 25.0368 0 0 1-35.1744-5.632 25.0368 25.0368 0 0 1 5.632-35.1488 151.552 151.552 0 0 0 62.336-122.24c0-83.3024-67.712-151.04-151.04-151.04H158.848V556.0832z" fill="#007751" p-id="18068"></path></svg>