<?xml version="1.0" standalone="no"?><!DOCTYPE svg PUBLIC "-//W3C//DTD SVG 1.1//EN" "http://www.w3.org/Graphics/SVG/1.1/DTD/svg11.dtd"><svg t="1611554308318" class="icon" viewBox="0 0 1024 1024" version="1.1" xmlns="http://www.w3.org/2000/svg" p-id="5202" xmlns:xlink="http://www.w3.org/1999/xlink" width="40" height="40"><defs><style type="text/css"></style></defs><path d="M872.228571 95.597714h-152.868571a72.265143 72.265143 0 0 0-69.924571-55.442285H573.659429a62.902857 62.902857 0 0 0-58.88-39.716572 62.829714 62.829714 0 0 0-58.953143 39.716572H378.806857a72.411429 72.411429 0 0 0-69.851428 55.442285H156.013714c-39.716571 0-69.851429 32.548571-69.851428 72.192v777.581715c0 39.716571 31.305143 72.265143 69.851428 72.265142h714.971429c39.716571 0 73.362286-32.548571 73.362286-72.265142V167.862857c1.316571-39.716571-32.402286-72.265143-72.118858-72.265143z m-356.352 34.889143a57.782857 57.782857 0 1 1 0 115.565714 57.782857 57.782857 0 0 1 0-115.565714z m220.306286 598.308572a26.770286 26.770286 0 0 1-26.550857 26.477714H322.121143a26.770286 26.770286 0 0 1-26.477714-26.550857v-24.137143c0-14.409143 12.068571-26.477714 26.477714-26.477714h387.510857c14.482286 0 26.550857 12.068571 26.550857 26.550857v24.137143z m0-244.443429a26.770286 26.770286 0 0 1-26.550857 26.477714H322.121143a26.770286 26.770286 0 0 1-26.477714-26.477714v-24.137143c0-14.409143 12.068571-26.477714 26.477714-26.477714h387.510857c14.482286 0 26.550857 12.068571 26.550857 26.477714v24.137143z" p-id="5203" fill="#646566"></path></svg>