<?xml version="1.0" standalone="no"?><!DOCTYPE svg PUBLIC "-//W3C//DTD SVG 1.1//EN" "http://www.w3.org/Graphics/SVG/1.1/DTD/svg11.dtd"><svg t="1611585897512" class="icon" viewBox="0 0 1024 1024" version="1.1" xmlns="http://www.w3.org/2000/svg" p-id="3500" xmlns:xlink="http://www.w3.org/1999/xlink" width="40" height="40"><defs><style type="text/css"></style></defs><path d="M898.844444 147.911111c-11.377778-11.377778-28.444444-17.066667-45.511111-17.066667h-5.688889-28.444444c-28.444444 0-79.644444 0-130.844444-11.377777C620.088889 102.4 546.133333 28.444444 523.377778 11.377778 512 5.688889 500.622222 0 483.555556 0c-11.377778 0-22.755556 5.688889-34.133334 11.377778 0 0-79.644444 85.333333-159.288889 102.4-51.2 11.377778-108.088889 17.066667-136.533333 17.066666h-34.133333c-17.066667 0-34.133333 5.688889-45.511111 17.066667s-17.066667 28.444444-17.066667 45.511111v159.288889C56.888889 944.355556 455.111111 1018.311111 472.177778 1024h22.755555c17.066667-5.688889 420.977778-79.644444 420.977778-671.288889V193.422222c0-17.066667-5.688889-34.133333-17.066667-45.511111z m-147.911111 227.555556l-278.755555 267.377777-5.688889 5.688889c-5.688889 5.688889-17.066667 11.377778-28.444445 11.377778s-22.755556-5.688889-28.444444-11.377778l-5.688889-5.688889-153.6-142.222222c-17.066667-17.066667-17.066667-39.822222 0-56.888889s39.822222-17.066667 56.888889 0L432.355556 568.888889l256-250.311111c17.066667-17.066667 39.822222-17.066667 56.888888 0 17.066667 17.066667 17.066667 39.822222 5.688889 56.888889z" fill="#646566" p-id="3501"></path></svg>