<?xml version="1.0" standalone="no"?><!DOCTYPE svg PUBLIC "-//W3C//DTD SVG 1.1//EN" "http://www.w3.org/Graphics/SVG/1.1/DTD/svg11.dtd"><svg t="1611576497951" class="icon" viewBox="0 0 1024 1024" version="1.1" xmlns="http://www.w3.org/2000/svg" p-id="1827" xmlns:xlink="http://www.w3.org/1999/xlink" width="40" height="40"><defs><style type="text/css"></style></defs><path d="M406.782149 713.675075c-0.180632 0.180632-0.180632 0.180632 0 0z m0 0c0.180632-0.180632 0.361263-0.361263 0.541894-0.722526 1.986947-1.986947-0.180632 0.361263-0.541894 0.722526z m203.029811 23.843359c2.34821 3.431999 3.431999 7.586523 3.251367 11.560416-0.180632 4.335156-1.445052 8.489681-4.335156 11.741048-0.541895 0.722526-1.264421 1.445052-1.986947 1.986946-1.083789 0.903158-0.541895 1.264421-0.180631 2.528841 0.361263 1.806315 0.361263 3.431999 0.180631 5.238314-0.903158 7.586523-7.22526 14.992415-15.353678 14.089257-7.767155-0.903158-13.005468-10.476627-17.340624-16.076204-5.238314 10.115364-14.089257 18.243782-24.565885 22.217675-7.767155 3.070736-61.595343 3.070736-69.723761 2.890105-8.128418-0.180632-16.076204-1.445052-23.301464-5.238314-9.392838-4.877051-16.979361-13.005468-21.314517-22.75957-3.070736 3.61263-6.322103 7.044629-9.392838 10.657259-7.044629 7.947786-18.785676 4.335156-22.398307-5.057682-0.903158-2.528841-1.264421-5.238314-1.083789-7.767155 0.180632-1.264421 0.361263-2.528841 0.722526-3.793261 0.541895-1.445052-1.083789-1.986947-1.986947-3.251367-3.431999-4.335156-4.515788-10.295996-3.61263-15.714941 0.541895-2.709473 1.625684-5.418945 3.251367-7.767155 0.722526-1.083789 1.625684-1.986947 2.709473-2.890104s0.541895-1.264421 0.180631-2.528841c-1.083789-5.238314 0.361263-10.83789 3.973894-14.811784 5.96084-6.502734 14.992415-5.599577 20.230728 1.083789 2.709473 3.431999 5.599577 7.044629 8.309049 10.476628 5.238314-10.115364 14.089257-18.424413 24.746516-22.578938 7.767155-3.070736 61.595343-3.070736 69.723761-2.890104 8.128418 0.180632 16.076204 1.445052 23.301464 5.238313 9.57347 4.877051 17.159993 13.005468 21.314518 22.75957 5.418945-6.141471 11.560416-16.618098 20.953254-14.811784 7.405892 1.264421 11.921679 9.031575 11.741048 16.256836 0 1.986947-0.361263 3.973893-1.083789 5.780208 1.083789 1.083789 2.167578 2.167578 3.070736 3.431999z m-179.005821 5.780208c0.180632-3.793262 0.903158-7.586523 1.986946-11.199154-0.180632-1.083789-2.167578-2.709473-2.709472-3.61263-1.625684-2.167578-3.251367-4.154525-4.877051-6.322102-1.986947-2.528841-4.335156-6.683366-7.767155-6.863997 0.361263 0 0.722526 0 0 0-0.903158 0-0.361263 0 0 0-5.780208-0.180632-8.309049 7.405892-6.863997 11.921679 0.722526 2.709473 3.070736 4.877051 4.696419 7.044629-1.986947 0-4.335156-0.361263-6.141471 0.361263-3.431999 1.625684-5.057682 5.96084-5.238314 9.573469-0.180632 3.793262 1.445052 8.670312 5.418946 10.115365 1.625684 0.541895 3.61263 0.361263 5.418945 0.361263-2.709473 3.070736-5.780208 5.96084-5.780208 10.476627 0 5.418945 6.141471 12.282942 11.199153 6.683365 3.973893-3.793262 7.405892-8.309049 11.018522-12.463573 1.806315-1.986947 0.722526-2.890104 0.361263-5.599577-0.722526-3.251367-0.903158-6.863997-0.722526-10.476627z m129.874052-25.288411c-5.96084-6.141471-14.089257-10.295996-22.578939-11.379785-4.335156-0.541895-55.27324-0.541895-59.608396-0.541894-14.631152-0.361263-28.178515 7.586523-35.403775 20.230728-7.044629 12.463574-7.044629 28.359146 0.180631 40.82272 4.515788 7.767155 11.560416 13.908626 19.869466 17.159993 6.141471 2.34821 58.524608 2.709473 64.84671 2.890104 6.683366 0.180632 13.1861-0.180632 19.688834-2.890104 7.767155-3.251367 14.269889-8.850944 18.605045-15.895572 9.754101-15.895572 7.405892-37.21009-5.599576-50.39619z m45.338507 30.887987c0.180632-3.793262-1.445052-8.670312-5.418945-10.115364-1.625684-0.541895-3.61263-0.361263-5.418945-0.361263 1.986947-2.34821 4.696419-4.515788 5.418945-7.586523 1.083789-4.335156-1.083789-11.379785-6.502734-11.560416 0.361263 0 0.903158 0 0 0h-0.361263 0.361263c-3.61263 0-6.141471 3.973893-8.309049 6.502734-1.806315 1.986947-3.431999 3.973893-5.238314 5.960839-1.264421 1.445052-3.070736 2.528841-2.528841 4.515788 0.722526 3.251367 1.083789 6.683366 1.26442 10.115364 0 3.793262-0.361263 7.405892-1.083789 11.018522-0.541895 2.709473-1.625684 3.61263 0 5.780208 3.431999 4.335156 6.683366 9.754101 10.837891 13.547363 5.780208 5.238314 11.199153-3.431999 10.657259-8.670312-0.361263-3.61263-3.070736-6.141471-5.057683-8.850944 1.986947 0 4.335156 0.361263 6.141472-0.361263 3.61263-1.986947 5.238314-6.322103 5.238313-9.934733zM543.700829 722.345387c-4.335156-0.180632-8.489681-0.180632-12.644205-0.361263-4.335156-0.180632-54.911977-0.180632-59.247134-0.361263-2.709473 0-7.405892-0.903158-7.405891 3.251367-0.180632 3.973893 4.154525 3.61263 6.863997 3.61263 4.154525 0.180632 54.731346 0.180632 58.88587 0.361263l13.005469 0.361263c2.709473 0 7.405892 0.903158 7.405891-3.251367 0.180632-3.973893-4.154525-3.61263-6.863997-3.61263z m50.39619-3.251367z m-176.838243-3.61263z m47.144823 9.392838c0-1.986947 0 1.806315 0 0z m-78.935968-222.899277c-16.076204-16.076204-36.668195-26.733463-58.524608-30.346092v1.806315l-2.709472 24.02399-5.418945 60.330922c3.070736-2.709473 7.22526-6.322103 11.560416-9.754101 16.618098-13.908626 39.016405-32.694302 55.092609-46.061034z m-155.343094 1.264421c-15.173046 16.076204-25.469042 36.126301-29.442935 57.982713l83.993649 7.586523-54.550714-65.569236z m102.237432 69.723761l8.48968 0.903157 76.407127 6.683366c0-23.662727-6.683366-45.157876-19.688834-63.401658-19.688834 16.437467-44.254719 37.571353-59.789028 50.938084-1.986947 1.625684-3.793262 3.431999-5.418945 4.877051z m222.718645-262.999471c15.534309-10.295996 24.565885-27.63662 24.565885-45.519139-16.076204-6.683366-35.223143-5.780208-51.299348 4.87705-15.534309 10.657259-24.565885 27.63662-24.565884 45.51914 16.076204 6.683366 35.223143 5.780208 51.299347-4.877051z m-149.201623-2.709473c24.565885 16.076204 54.370083 17.882519 79.477862 7.225261-0.361263-27.275357-13.908626-54.370083-38.47451-70.446287-24.02399-16.076204-54.00882-17.882519-79.477862-7.22526 0.541895 27.094726 13.908626 54.370083 38.47451 70.446286zM199.23655 580.549656c0 28.178515 11.199153 49.493032 19.688834 62.137238l64.304815-54.370083-83.993649-7.767155z m222.357382-114.881637c14.811783 14.811783 26.3722 32.152408 34.319986 51.299347 8.489681 20.050097 12.463574 41.003352 12.463574 62.859764 0 21.856412-4.515788 42.809667-12.463574 62.859764-3.070736 7.586523-6.683366 14.811783-11.199153 21.495149 16.076204 4.877051 32.513671 7.22526 49.131769 7.22526 26.914094 0 52.383136-6.322103 74.962074-17.521256-8.670312-12.463574-10.295996-28.359146-4.515787-44.254719 4.877051-13.547363 14.45052-24.746516 25.830305-30.526724 5.599577-37.932616 32.874934-76.045863 72.975128-95.373434-8.309049-86.703122-80.742283-154.259305-168.890457-154.259305-65.569236 0-122.829423 37.571353-150.827307 92.48333 9.392838 2.167578 18.243782 4.877051 27.275358 8.850944 19.146939 8.128418 36.126301 19.688834 50.938084 34.86188z m-113.436585 259.928735c-80.38102 0-145.047098-65.207973-145.047098-145.950255 0-80.38102 64.666079-145.950256 145.047098-145.950256 9.754101 0 19.146939 0.903158 28.539778 2.709472 66.472394 13.366731 116.507321 72.252602 116.50732 143.240784 0 29.081672-8.489681 56.176398-23.301464 78.935967-25.830305 40.100194-70.446287 67.014288-121.745634 67.014288z m104.40501-75.503969c13.366731-20.591992 21.495149-44.615982 21.495149-70.988181 0-62.137238-44.615982-113.797848-103.501852-124.455107-7.22526-0.903158-14.811783-1.806315-22.398307-1.806315-69.723761 0-125.900159 56.718292-125.900159 126.261422 0 70.085024 56.176398 126.803316 125.900159 126.803316 43.351561 0 81.64544-21.856412 104.40501-55.815135z m-59.789028-55.27324c-10.295996-0.903158-17.340624-1.264421-22.398307-1.806315l54.370083 65.207973c5.418945-4.877051 9.754101-10.657259 13.908626-16.437467 8.489681-12.463574 14.269889-26.733463 16.979361-41.545246-28.359146-2.34821-48.589875-4.154525-62.859763-5.418945z m-64.666079 92.844593l7.22526-84.354912-64.304816 54.00882c16.076204 16.076204 35.584406 26.191568 57.079556 30.346092z m19.146939 1.806315c29.081672 0 50.034927-10.657259 62.137238-18.785676L315.021344 605.115541l-7.767155 84.354912z m-62.4985-198.694655l54.911977 65.569236 7.586523-86.161227c-22.217675 0.541895-44.615982 7.586523-62.4985 20.591991z m616.134062 142.518257c-3.431999 30.707356-39.197037 31.24925-39.197036 31.249251S794.236726 778.521785 791.16599 787.011466c-2.890104 8.309049-10.476627 6.863997-10.476627 6.863997s-120.119951-0.903158-130.957841 0c-3.973893-0.541895-5.96084-2.528841-5.960839-2.528841l-27.636621-119.939319c-23.843359-8.850944-29.262304-15.353678-35.765037-23.843359-15.895572-20.772623 0.541895-54.00882 21.856412-59.066502 2.890104-47.686717 48.589875-105.127536 118.494267-104.585641 82.367966 3.973893 115.062268 76.407126 114.159111 108.559534 17.159993 8.128418 26.552831 18.06315 26.010936 40.82272z m-83.632386-33.416828c-4.877051 0-8.850944 3.973893-8.850944 8.850944s3.973893 8.850944 8.850944 8.850943 8.850944-3.973893 8.850943-8.850943c0.180632-4.877051-3.973893-8.850944-8.850943-8.850944z m-14.089258-46.241665c0 4.877051 3.973893 8.850944 8.850944 8.850944s8.850944-3.973893 8.850944-8.850944-3.973893-8.850944-8.850944-8.850944-8.850944 3.973893-8.850944 8.850944z m-124.093843 55.27324c0 4.877051 3.973893 8.850944 8.850943 8.850944s8.850944-3.973893 8.850944-8.850944-3.973893-8.850944-8.850944-8.850943c-4.877051-0.180632-8.850944 3.793262-8.850943 8.850943z m29.442935 156.968778l-14.992415-79.477862c-1.264421-4.154525-5.418945-6.502734-9.392838-5.238314-3.973893 1.264421-6.141471 5.418945-4.877051 9.57347l14.992415 79.477862c1.264421 4.154525 5.418945 6.502734 9.392838 5.238314 3.973893-1.083789 6.141471-5.418945 4.877051-9.57347z m4.515787-200.50097c0-4.877051-3.973893-8.850944-8.850943-8.850944s-8.850944 3.973893-8.850944 8.850944 3.973893 8.850944 8.850944 8.850943 8.850944-3.973893 8.850943-8.850943z m32.694303 202.849179l-5.238314-81.464808c-0.541895-4.154525-4.335156-7.22526-8.309049-6.683366-3.973893 0.541895-6.863997 4.335156-6.322103 8.670312l5.238314 81.464809c0.541895 4.154525 4.335156 7.22526 8.309049 6.683366 4.154525-0.541895 7.044629-4.515788 6.322103-8.670313z m8.850943-220.731698c4.877051 0 8.850944-3.973893 8.850944-8.850944s-3.973893-8.850944-8.850944-8.850944-8.850944 3.973893-8.850943 8.850944c-0.180632 4.877051 3.793262 8.850944 8.850943 8.850944z m12.282943 52.383136c0-4.877051-3.973893-8.850944-8.850944-8.850944s-8.850944 3.973893-8.850944 8.850944 3.973893 8.850944 8.850944 8.850944 8.850944-3.793262 8.850944-8.850944z m23.301464 88.690069c0.541895-4.154525-2.34821-8.128418-6.322103-8.670312-3.973893-0.541895-7.767155 2.528841-8.309049 6.683365l-9.57347 81.64544c-0.541895 4.154525 2.34821 8.128418 6.322103 8.670313 3.973893 0.541895 7.767155-2.528841 8.309049-6.683366l9.57347-81.64544z m41.725877-7.22526c-3.973893-1.264421-8.128418 1.083789-9.392838 5.238313l-19.327571 79.477862c-1.264421 4.154525 0.903158 8.309049 4.877051 9.57347 3.973893 1.264421 8.128418-1.083789 9.392838-5.238314l19.327571-79.477862c1.083789-4.154525-1.083789-8.489681-4.877051-9.573469z m138.724996-169.25172c0-230.847063-187.676133-418.523196-418.523196-418.523197S93.567119 281.243253 93.567119 512.090316s187.676133 418.523196 418.523197 418.523196 418.523196-187.856765 418.523196-418.523196z m-17.521256 0c0 221.092962-179.908979 401.182572-401.182572 401.182572s-401.00194-180.08961-401.00194-401.182572S290.816723 110.907744 512.090316 110.907744s401.00194 179.908979 401.00194 401.182572z" fill="#007751" p-id="1828"></path></svg>